<svg width="83" height="72" viewBox="0 0 83 72" fill="none" xmlns="http://www.w3.org/2000/svg">
<rect y="44" width="5" height="28" fill="white"/>
<rect x="78" y="44" width="5" height="28" fill="white"/>
<rect y="72" width="5" height="83" transform="rotate(-90 0 72)" fill="white"/>
<path d="M38.8787 60.1213C40.0503 61.2929 41.9497 61.2929 43.1213 60.1213L62.2132 41.0294C63.3848 39.8579 63.3848 37.9584 62.2132 36.7868C61.0416 35.6152 59.1421 35.6152 57.9706 36.7868L41 53.7574L24.0294 36.7868C22.8579 35.6152 20.9584 35.6152 19.7868 36.7868C18.6152 37.9584 18.6152 39.8579 19.7868 41.0294L38.8787 60.1213ZM38 0V58H44V0L38 0Z" fill="white"/>
</svg>
